<?xml version="1.0" standalone="no"?><!DOCTYPE svg PUBLIC "-//W3C//DTD SVG 1.1//EN" "http://www.w3.org/Graphics/SVG/1.1/DTD/svg11.dtd"><svg t="1691979363210" class="icon" viewBox="0 0 1024 1024" version="1.1" xmlns="http://www.w3.org/2000/svg" p-id="2937" xmlns:xlink="http://www.w3.org/1999/xlink" width="200" height="200"><path d="M854.333786 471.441259c-21.341051 11.82635-51.845809 17.703197-77.30976 20.611433 40.390919-34.326806 79.600943-73.439616 95.457072-122.643248 21.50785-66.750263 22.159696-128.627543 2.041496-194.715727-1.749854-5.744841-6.637164-9.986445-12.579503-10.916631-5.998621-1.041726-11.885701 1.575892-15.34243 6.470365-53.359278 75.997881-123.921357 124.469849-201.036689 138.798183 23.048949-46.37112 48.470945-98.713232 42.987047-153.429415-0.610914-6.049786-4.650927-11.212366-10.42749-13.228279-5.734608-2.006703-12.148691-0.538259-16.426111 3.811816-81.752955 83.253122-147.011238 100.82329-225.821165 102.177124-87.015819 1.499144-170.115446 41.618886-227.958852 110.088304-57.371662 67.87897-82.767052 155.432025-69.673849 240.216014 21.035082 136.421043 122.837676 238.518349 259.366166 260.09169 17.23043 2.720971 34.30941 4.051269 51.123354 4.051269 112.13287 0 212.755592-59.304687 270.252097-162.333202 6.553253-11.718903 17.314341-23.221888 29.519314-31.587416 55.511291-37.982056 95.665827-87.140663 119.311363-146.156778 3.263323-8.156774 5.665023-18.202571 7.761778-27.068496l1.62501-6.685259c1.541099-6.061043-0.693802-12.468986-5.665023-16.272615C866.566388 468.917786 859.804381 468.431715 854.333786 471.441259zM170.471556 575.500243c13.176091 41.431621 94.16566 55.302537 94.16566 55.302537C197.032492 703.437054 170.471556 575.500243 170.471556 575.500243zM366.050953 630.80278c0 0 165.283394-19.10922 231.138264-76.05314C597.189218 554.74964 501.273704 773.460874 366.050953 630.80278z" fill="#2c2c2c" p-id="2938"></path></svg>