<svg xmlns="http://www.w3.org/2000/svg" viewBox="0 0 388.04 65.52"><g id="图层_2" data-name="图层 2"><g id="图层_1-2" data-name="图层 1"><path d="M11.48,65.29H0V1.51H11.48L46.87,46.63V1.51H58.35V65.29H46.87L11.48,20.09Z"/><path d="M86.73,62.89a37.14,37.14,0,0,1-5.42-3,26.83,26.83,0,0,1-4.7-3.9,31.41,31.41,0,0,1-9.33-22.56,31.37,31.37,0,0,1,9.33-22.56,31.69,31.69,0,0,1,34.91-6.78,30.61,30.61,0,0,1,5.38,2.91,37.09,37.09,0,0,1,4.74,3.87,31.79,31.79,0,0,1,0,45.12,32,32,0,0,1-34.91,6.85ZM85,19.37a19.21,19.21,0,0,0-4.38,6.42,20.34,20.34,0,0,0,0,15.38A20.15,20.15,0,0,0,85,47.67,20.09,20.09,0,0,0,106.78,52a19.6,19.6,0,0,0,10.8-10.8,19.93,19.93,0,0,0-4.31-21.8,19.79,19.79,0,0,0-14.19-5.9A19.76,19.76,0,0,0,91.39,15,19.06,19.06,0,0,0,85,19.37Z"/><path d="M152,2h15.62a22.32,22.32,0,0,1,8.61,1.68,25.32,25.32,0,0,1,3.87,2,26.43,26.43,0,0,1,3.39,2.59,22.14,22.14,0,0,1,5,7,21,21,0,0,1,1.91,8.77,20.61,20.61,0,0,1-1.91,8.77,21.59,21.59,0,0,1-2.15,3.67,24,24,0,0,1-2.87,3.27,24.39,24.39,0,0,1-7.26,4.62,22,22,0,0,1-8.52,1.75H152V65.52H140.14V2Zm0,11.88V34.28h15.62a11,11,0,0,0,7.74-3.11,9.52,9.52,0,0,0,3.19-7.1A9.33,9.33,0,0,0,175.37,17a11,11,0,0,0-7.74-3.11Z"/><path d="M245.59,65.45H199.28V1.83h11.24V54.12h35.07Z"/><path d="M273.18,55.32l-4.95,10.2h-12l25.1-52.29.64-1.35L287.68,0l5.74,12,.24.55,25.43,53h-12l-5-10.2Zm14.27-29.81-9,18.73h18.25Z"/><path d="M341.17,65.29H329.69V1.51h11.48l35.39,45.12V1.51H388V65.29H376.56l-35.39-45.2Z"/><rect x="73.54" y="27.86" width="51.16" height="11.24" transform="translate(5.36 79.9) rotate(-45)"/></g></g></svg>